<svg width="1200" height="900" viewBox="0 0 1200 900" fill="none" xmlns="http://www.w3.org/2000/svg">
  <rect width="1200" height="900" fill="url(#bg)"/>
  <ellipse cx="608" cy="760" rx="430" ry="74" fill="#D8C8B1" fill-opacity="0.55"/>
  <rect x="170" y="570" width="860" height="220" rx="26" fill="#D1B796"/>
  <rect x="328" y="230" width="544" height="344" rx="24" fill="#2B2F3F"/>
  <rect x="360" y="262" width="480" height="278" rx="14" fill="#F7FBFF"/>
  <rect x="420" y="300" width="170" height="28" rx="14" fill="#7BDA95"/>
  <rect x="420" y="354" width="330" height="20" rx="10" fill="#C8D2E6"/>
  <rect x="420" y="395" width="280" height="20" rx="10" fill="#D5DDEE"/>
  <rect x="420" y="436" width="314" height="20" rx="10" fill="#D5DDEE"/>
  <rect x="480" y="596" width="240" height="22" rx="11" fill="#9A8471" fill-opacity="0.8"/>
  <rect x="786" y="216" width="180" height="224" rx="16" transform="rotate(8 786 216)" fill="#FFF8E7"/>
  <rect x="808" y="252" width="112" height="18" rx="9" transform="rotate(8 808 252)" fill="#1E4FAE"/>
  <rect x="808" y="292" width="126" height="14" rx="7" transform="rotate(8 808 292)" fill="#CBD5E1"/>
  <rect x="808" y="326" width="98" height="14" rx="7" transform="rotate(8 808 326)" fill="#CBD5E1"/>
  <rect x="808" y="360" width="118" height="14" rx="7" transform="rotate(8 808 360)" fill="#CBD5E1"/>
  <circle cx="252" cy="276" r="80" fill="#7ED957" fill-opacity="0.2"/>
  <path d="M202 346C230 304 260 278 292 250C316 304 316 354 294 398C258 390 226 374 202 346Z" fill="#2C8E4E"/>
  <path d="M234 386C250 348 284 312 334 282C340 330 324 374 288 416C264 410 246 402 234 386Z" fill="#44AE68"/>
  <defs>
    <linearGradient id="bg" x1="170" y1="120" x2="1024" y2="830" gradientUnits="userSpaceOnUse">
      <stop stop-color="#8BCBA5"/>
      <stop offset="0.52" stop-color="#D7C4A2"/>
      <stop offset="1" stop-color="#B6926A"/>
    </linearGradient>
  </defs>
</svg>
