<svg width="800" height="520" viewBox="0 0 800 520" fill="none" xmlns="http://www.w3.org/2000/svg">
  <rect width="800" height="520" fill="url(#bg)"/>
  <rect x="98" y="110" width="604" height="286" rx="28" fill="#FFFFFF" fill-opacity="0.72"/>
  <rect x="132" y="150" width="116" height="168" rx="20" fill="#5677C6"/>
  <rect x="270" y="134" width="92" height="186" rx="20" fill="#E8EEF9"/>
  <rect x="380" y="164" width="122" height="154" rx="20" fill="#D8B5B8"/>
  <rect x="522" y="126" width="136" height="194" rx="20" fill="#F3F6FB"/>
  <rect x="140" y="164" width="100" height="22" rx="11" fill="#B5C8F5"/>
  <rect x="140" y="198" width="82" height="16" rx="8" fill="#D7E2FB"/>
  <rect x="278" y="148" width="76" height="20" rx="10" fill="#CBD7F1"/>
  <rect x="278" y="180" width="60" height="14" rx="7" fill="#E2E8F7"/>
  <rect x="392" y="180" width="98" height="18" rx="9" fill="#F2D5D6"/>
  <rect x="392" y="210" width="84" height="14" rx="7" fill="#FAE8E8"/>
  <rect x="538" y="142" width="104" height="20" rx="10" fill="#D3DCEC"/>
  <rect x="538" y="176" width="84" height="14" rx="7" fill="#E7EDF8"/>
  <rect x="146" y="332" width="508" height="26" rx="13" fill="#E0E8F7"/>
  <circle cx="654" cy="120" r="44" fill="#FFFFFF" fill-opacity="0.8"/>
  <path d="M654 100V140" stroke="#4361B1" stroke-width="10" stroke-linecap="round"/>
  <path d="M634 120H674" stroke="#4361B1" stroke-width="10" stroke-linecap="round"/>
  <defs>
    <linearGradient id="bg" x1="84" y1="60" x2="708" y2="468" gradientUnits="userSpaceOnUse">
      <stop stop-color="#EEF2F8"/>
      <stop offset="1" stop-color="#D7DDE8"/>
    </linearGradient>
  </defs>
</svg>
